<svg xmlns="http://www.w3.org/2000/svg" xmlns:xlink="http://www.w3.org/1999/xlink" width="1920" height="509" viewBox="0 0 1920 509">
    <defs>
        <path id="a" d="M0 0h1920v509H0z"/>
    </defs>
    <g fill="none" fill-rule="evenodd">
        <mask id="b" fill="#fff">
            <use xlink:href="#a"/>
        </mask>
        <use fill="#065AFF" xlink:href="#a"/>
        <path fill="#0041D7" d="M1561.548 454.759L1496.653 283 1391 520.115l117.72 53.2-52.825 118.559 17.05 45.126L1748 431.506l-15.906-42.103-117.72-53.2-52.826 118.556zM215-12.825l.179.475L333.089 41 386-77.892 352.751-166 215-12.825zM1770.155 406L1840 328l-108 60.663L1770.155 406zM539.89-375L396.32-215.353l41.462 18.76L385-78l170.397-65.376L599-309.273 539.891-375zm1126.72 592.06L1837 151.59 1601.78 45 1261 175.94l117.612 53.295L1325.835 348l170.389-65.47L1549 163.765l117.612 53.296zM1666 217l65.05 172L1784 270.275 1666 217zM-45 276.255L205.986 555 361 382.845l-209.766 22.867-41.54-180.9L32.664 190-45 276.255zM214.536-12.809l-.555.618 1.038-.396-.483-.222zM123.19 89L77 140.203 109.102 225 162 106.506 123.19 89zM280 159l-170 65.6L227.341 278 280 159zm405.122 42l235.122 106.555L973 188.831l-117.564-53.277-64.804-172L673.07-89.723 620.317 29.002 555.51-143 450 94.45l117.56 53.274v.002L545.13 198.2l124.131 138.244L749.93 373l-64.807-172zM450 94l-170 65.324L344.685 331 450 94zm576.263-24l-48.439 262.93-57.026-25.814L715 386.12 865.89 554l.982-1.091 25.502-116.235 56.127 25.41L1195 187.822 1026.263 70zm-64.518-171.989L1026.529 70 1132-167.432 1014.77-171 869.402-9.06 753-138.74l38.492 102.195L909.01 16.726l52.735-118.715zM2153.615-167L1943-85.963l117.38 53.265L2007.709 86l76.052-29.264L2219-94.084 2153.614-167zm-295.642 475L1921 237.255 1809 224l48.973 84zm-20.735-540L1774-161.352 1862-28l-24.762-204zM1607 25l165-44.581L1682.632-59 1607 25zm282.5 8.541L1772-19.654l64.774 171.736L1951.459 204l6.691-7.442L2007 86.736 1942.226-85 1889.5 33.541zM2113-151.292l-39.468-104.595L1966.427-375 1873-271.099 1942.842-86l52.705-118.44L2113-151.292zm-1003 728.33L1220.298 585 1326 347.498l-2.83-7.498L1110 577.038zM1063-225l108-31.01-20.094-66.99L1063-225zm368.156 335.618L1366.299-61.21 1558 25.512 1214.836-356 1131-167.656l117.648 53.222-52.794 118.606L1260.711 176l52.794-118.604 117.65 53.222zM1315 318l-53.788-142L1198 188.049 1315 318zm-147.656 386L1220 585l-170 65.6 117.344 53.4zM738-155L622.844-283 581-175.514 738-155zm643.376 994.215L1391 520l-170 65.478L1355.589 868l25.787-28.785zM998 701.949L1251.01 983l65.99-73.305-202.432-87.18-64.854-171.685-4.049-1.83L998 701.949z" mask="url(#b)"/>
    </g>
</svg>
